<svg xmlns="http://www.w3.org/2000/svg" viewBox="0 0 33 33" width="60" height="60"><path d="M7.282 32.706c-.08 0-.163-.02-.237-.06-.162-.087-.263-.257-.263-.44v-7.124C2.405 22.806 0 18.822 0 13.828 0 6.112 7.093.294 16.5.294S33 6.112 33 13.828c0 7.715-7.093 13.533-16.5 13.533-.31 0-.612-.016-.916-.032h-.02l-8.007 5.295c-.083.055-.18.083-.275.083zM16.5 1.294C7.664 1.294 1 6.684 1 13.828c0 3.323 1.128 7.842 6.503 10.5.17.083.278.257.278.447v6.5l7.37-4.873c.09-.06.2-.095.302-.082l.186.01c.286.016.57.03.86.03 8.837 0 15.5-5.387 15.5-12.532S25.337 1.294 16.5 1.294z" fill="#FFF"/></svg>