<svg xmlns="http://www.w3.org/2000/svg" xmlns:xlink="http://www.w3.org/1999/xlink" width="512" height="2048" viewBox="0 0 512 2048"><svg viewBox="0 0 512 512" width="512" height="512" id="chipmunk" y="0"><path d="M359.226 512c90.694 0 148.645-66.14 148.645-156.903 0-96-92.903-162.065-99.097-228.278-4.495-48.051 32.043-64.924 71.738-52.04 4.768 1.548 9.233-3.065 7.225-7.658-11.751-26.878-46.91-86.138-121.285-61.077-87.781 29.578-58.839 151.891-34.065 214.859L359.226 512z" fill="#d26437"></path><path d="M24.774 272.516a8.256 8.256 0 0 1-8.258-8.258v-10.766c0-4.56 3.694-8.258 8.258-8.258s8.258 3.698 8.258 8.258v10.766a8.255 8.255 0 0 1-8.258 8.258z" fill="#dcaa82"></path><path d="M24.774 305.548c-11.402 0-20.645-9.243-20.645-20.645v-8.258c0-11.402 9.243-20.645 20.645-20.645s20.645 9.243 20.645 20.645v8.258c0 11.402-9.243 20.645-20.645 20.645z" fill="#965a50"></path><path d="M231.914 401.748c-32.155-35.969-48.516-81.947-48.516-81.947l63.656-28.704 21.333 59.871-36.473 50.78z" fill="#f5dcb4"></path><path d="M163.79 94.968a8.258 8.258 0 0 1-8.178-9.484l3.097-20.645c.677-4.5 4.806-7.633 9.395-6.94a8.258 8.258 0 0 1 6.944 9.391l-3.097 20.645c-.612 4.093-4.136 7.033-8.161 7.033z" fill="#d26437"></path><path d="M212.945 168.258a69.414 69.414 0 0 0-1.493-5.497c-6.902-21.843-32.732-41.133-55.418-44.311-25.541-3.578-51.843 3.628-70.838 21.203-24.386 22.564-34.163 52.342-36.988 67.019-.966 5.018.908 10.065 4.858 13.307 4.748 3.898 12.492 8.748 23.525 11.142 0 0 7.494 16.208 25.557 29.881-26.787-.096-48.267-5.392-57.203-1.648-11.126 5.262-14.218 13.906-14.862 20.205-.499 4.891 2.997 9.261 7.829 10.165 13.452 2.516 43.213 6.801 74.387 20.297 56.429 24.43 84.028 14.215 98.065 7.656 28.903-13.506 56.678.449 36.387 29.419-44.645 63.742 4.903 114.839 33.29 131.871h-36.645c-14.532 0-26.873 9.385-31.292 22.424-1.771 5.225 2.428 10.608 7.945 10.608h132.208a48.389 48.389 0 0 0 41.493-23.493l10.678-17.797c67.443-137.633-37.16-297.289-191.483-302.451z" fill="#eb874b"></path><path d="M158.974 78.933C149.444 88.312 142.5 108.5 138.515 118c-5.604 13.36 3.669 28.235 18.131 29.096 12.912.769 23.973-10.551 23.742-23.484-.258-14.452-4.673-35.96-9.704-43.544-2.598-3.914-8.362-4.43-11.71-1.135z" fill="#b44632"></path><circle cx="107.36" cy="177.551" r="12.387" fill="#4b3f4e"></circle><path d="M112.774 229.678c-14.323 3.115-26.585 3.39-35.968 1.445 0 0 7.494 16.208 25.557 29.881 28.368.102 62.69-5.628 94.372-34.108 3.683-3.31 3.11-9.497-1.423-11.489-26.252-11.537-53.237 7.898-82.538 14.271z" fill="#f5dcb4"></path><g fill="#d26437"><path d="M62.981 226.247c12.779-19.074-.541-29.856-10.733-33.858-1.817 5.47-3.061 10.345-3.804 14.176-.985 5.084.912 10.207 4.922 13.484 2.419 1.978 5.624 4.185 9.615 6.198zM326.194 462.452h-2.163c-15.444 0-30.898-3.669-43.897-12.008-37.785-24.24-42.754-71.78-39.146-94.203-25.998 45.357-5.329 83.477 17.942 106.211h.194c7.24 7.073 14.726 12.67 21.135 16.516h45.935a8.259 8.259 0 0 0 0-16.516z"></path></g><path d="M507.871 355.097c0-96-92.903-162.065-99.097-228.278-4.494-48.05 32.043-64.923 71.738-52.039 2.71.88 5.278-.262 6.659-2.227-33.322-52.595-98.354-62.229-124.849-23.004-30.75 45.527-12.043 112.516 38.194 165.161 30.616 32.084 131.441 173.419 45.285 271.772 39.305-27.323 62.07-74.513 62.07-131.385z" fill="#eb874b"></path></svg><svg viewBox="0 0 512 512" width="512" height="512" id="deer" y="512"><g fill="#8b534f"><path d="M238.229 206.893c-1.265-1.52-24.558-28.916-80.305-59.51l-7.013-6.603c-7.242-9.633-13.655-18.196-18.684-26.526 7.956-4.698 21.924-14.851 34.531-33.764a7.991 7.991 0 0 0-2.218-11.09c-3.694-2.46-8.654-1.457-11.09 2.218-10.529 15.797-21.91 24.292-28.401 28.269-4.749-12.378-5.647-25.287-.629-41.457a7.994 7.994 0 0 0-5.264-10.009 7.976 7.976 0 0 0-10.013 5.268c-9.906 31.928-1.01 53.843 14.354 76.549-10.105-4.6-20.843-9.183-32.497-13.665-10.532-4.05-19.56-8.65-27.355-13.576C79.899 76.44 80.127 14.734 80.127 12.072a7.996 7.996 0 0 0-7.998-7.998 8 8 0 0 0-7.998 7.998c-.007 16.547-2.497 62.184-13.482 81.51-37.851-31.522-34.752-70.519-34.543-72.7a8 8 0 0 0-7.123-8.767C4.641 11.682.657 14.837.197 19.234c-.086.801-1.953 19.889 7.795 43.292 8.872 21.326 29.484 50.602 77.259 68.98 100.4 38.61 140.31 85.174 140.685 85.627a7.991 7.991 0 0 0 6.154 2.878 8 8 0 0 0 6.139-13.118zM273.771 206.893c1.265-1.52 24.558-28.916 80.305-59.51l7.013-6.603c7.242-9.633 13.655-18.196 18.684-26.526-7.956-4.698-21.924-14.851-34.531-33.764a7.991 7.991 0 0 1 2.218-11.09c3.694-2.46 8.654-1.457 11.09 2.218 10.529 15.797 21.91 24.292 28.401 28.269 4.749-12.378 5.647-25.287.629-41.457a7.994 7.994 0 0 1 5.264-10.009 7.976 7.976 0 0 1 10.013 5.268c9.906 31.928 1.01 53.843-14.354 76.549 10.105-4.6 20.843-9.183 32.497-13.665 10.532-4.05 19.56-8.65 27.355-13.576-16.255-26.557-16.483-88.263-16.483-90.925a7.996 7.996 0 0 1 7.998-7.998 8 8 0 0 1 7.998 7.998c.007 16.547 2.497 62.184 13.482 81.51 37.851-31.522 34.752-70.519 34.543-72.7a8 8 0 0 1 7.123-8.767c4.342-.433 8.326 2.722 8.786 7.119.086.801 1.953 19.889-7.795 43.292-8.872 21.326-29.484 50.602-77.259 68.98-100.4 38.61-140.31 85.174-140.685 85.627a7.991 7.991 0 0 1-6.154 2.878 7.979 7.979 0 0 1-5.116-1.855 8.002 8.002 0 0 1-1.022-11.263z"></path></g><path d="M57.701 181.854c4.79 22.291 23.579 74.997 94.405 78.145l39.988-39.988s-65.828-38.3-126.033-46.851c-5.084-.723-9.439 3.673-8.36 8.694z" fill="#af6e5a"></path><path d="M66.061 173.159a7.52 7.52 0 0 0-4.952 1.007c15.596 6.963 65.041 31.047 104.575 72.255l26.41-26.41s-65.828-38.301-126.033-46.852z" fill="#c0826c"></path><path d="M454.451 181.854c-4.79 22.291-23.579 74.997-94.405 78.145l-39.988-39.988s65.828-38.3 126.033-46.851c5.083-.723 9.438 3.673 8.36 8.694z" fill="#af6e5a"></path><path d="M446.089 173.159a7.52 7.52 0 0 1 4.952 1.007c-15.596 6.963-65.041 31.047-104.575 72.255l-26.41-26.41s65.828-38.301 126.033-46.852z" fill="#c0826c"></path><path d="M208.089 459.94c0 26.502 11.546 47.986 47.986 47.986s47.986-21.484 47.986-47.986h-95.972z" fill="#8b534f"></path><path d="M256.076 196.018c-92.756 0-119.965 53.71-119.965 119.965 0 55.984 15.995 55.984 55.984 111.967h127.962c39.988-55.984 55.984-55.984 55.984-111.967-.001-66.256-27.209-119.965-119.965-119.965z" fill="#c0826c"></path><path d="M220.086 316.482c0-52.651 9.597-98.143 38.063-120.387-.715-.006-1.351-.077-2.074-.077-92.756 0-119.965 53.71-119.965 119.965 0 55.984 15.995 55.984 55.984 111.967h60.512c-23.084-48.795-32.52-53.785-32.52-111.468z" fill="#af6e5a"></path><g fill="#4b3f4e"><path d="M184.096 339.975c8.834 0 15.995-7.161 15.995-15.995v-7.998c0-8.834-7.161-15.995-15.995-15.995s-15.995 7.161-15.995 15.995v7.998c0 8.834 7.161 15.995 15.995 15.995zM328.054 339.975c-8.834 0-15.995-7.161-15.995-15.995v-7.998c0-8.834 7.161-15.995 15.995-15.995s15.995 7.161 15.995 15.995v7.998c0 8.834-7.161 15.995-15.995 15.995z"></path></g><path d="M256.076 371.966c36.992 0 66.98 23.274 66.98 51.985s-16.116 51.985-66.98 51.985-66.98-23.274-66.98-51.985 29.987-51.985 66.98-51.985z" fill="#d29b78"></path><g fill="#fff"><circle cx="184.1" cy="315.98" r="7.998"></circle><circle cx="328.05" cy="315.98" r="7.998"></circle></g><path d="M283.067 467.938c-50.864 0-66.98-26.855-66.98-59.982 0-10.987 3.354-21.252 9.113-30.108-21.441 8.668-36.105 26.043-36.105 46.104 0 28.71 16.116 51.985 66.98 51.985 19.379 0 33.686-3.395 44.008-9.165-5.188.754-10.835 1.166-17.016 1.166z" fill="#c0826c"></path><path d="M288.066 429.092c0 9.465-14.323 22.85-31.991 22.85s-31.991-13.385-31.991-22.85 14.323-17.138 31.991-17.138 31.991 7.673 31.991 17.138z" fill="#5d5360"></path><path d="M266.538 450.248c-15.243-5.3-26.458-22.241-26.458-34.867 0-.374.125-.722.144-1.092-9.601 2.958-16.14 8.444-16.14 14.803 0 7.977 10.219 18.644 23.993 21.832V475.7c2.578.137 5.214.235 7.998.235 2.783 0 5.419-.099 7.998-.235v-24.858c.822-.201 1.667-.35 2.465-.594z" fill="#4b3f4e"></path></svg><svg viewBox="0 0 512 512" width="512" height="512" id="fox" y="1024"><path d="M439.893 4.169c11.115-4.246 23.06 4.141 22.543 16.028-4.168 95.801-37.145 178.387-37.145 178.387l-124.559-87.398C350.393 51.372 410.485 15.404 439.893 4.169z" fill="#d26437"></path><path d="M342.252 140.319c32.368-52.714 81.19-103.046 96.647-112.026 6.266-3.64 11.768 5.266 10.365 17.005-7.465 62.48-21.005 118.599-29.343 149.519l-77.669-54.498z" fill="#b44632"></path><path d="M72.107 4.169C60.992-.077 49.047 8.31 49.564 20.197c4.168 95.801 37.145 178.387 37.145 178.387l124.559-87.398C161.607 51.372 101.515 15.404 72.107 4.169z" fill="#d26437"></path><path d="M169.748 140.319C137.38 87.605 88.558 37.273 73.101 28.293c-6.266-3.64-11.768 5.266-10.365 17.005 7.465 62.48 21.005 118.599 29.343 149.519l77.669-54.498z" fill="#b44632"></path><g fill="#ebc9a0"><ellipse cx="256" cy="475.92" rx="49.548" ry="33.03"></ellipse><path d="M198.194 467.659c-57.806-33.032-153.573-68.995-153.573-68.995l9.19-27.571c-3.874-1.84-30.413-2.187-53.81 5.727l24.774-41.29h173.419v132.129zM313.806 467.659c57.806-33.032 153.573-68.995 153.573-68.995l-9.19-27.571c3.874-1.84 30.413-2.187 53.81 5.727l-24.774-41.29H313.806v132.129z"></path></g><path d="M256 96.047c120.377 0 223.716 120.61 255.628 278.91.125.621.249 1.242.372 1.864 0 0-60.903-62.968-126.968-29.419-24.499 12.441-36.129 39.775-36.129 69.644 0 49.524-39.699 76.926-86.73 57.891a16.348 16.348 0 0 0-12.347 0c-47.031 19.036-86.73-8.366-86.73-57.891 0-29.869-11.631-57.203-36.129-69.644C60.903 313.853 0 376.821 0 376.821c.123-.622.247-1.243.372-1.864C32.284 216.656 135.623 96.047 256 96.047z" fill="#eb874b"></path><path d="M169.29 327.272c-15.897 0-28.903-13.006-28.903-28.903v-16.516c0-15.897 13.006-28.903 28.903-28.903 15.897 0 28.903 13.006 28.903 28.903v16.516c.001 15.897-13.006 28.903-28.903 28.903z" fill="#4b3f4e"></path><path d="M169.29 252.95c-1.413 0-2.769.221-4.129.419v40.871c0 9.121 7.395 16.516 16.516 16.516 9.122 0 16.516-7.395 16.516-16.516v-12.387c.001-15.897-13.006-28.903-28.903-28.903z" fill="#5d5360"></path><circle cx="169.29" cy="273.6" r="12.387" fill="#fff"></circle><path d="M342.71 327.272c-15.897 0-28.903-13.006-28.903-28.903v-16.516c0-15.897 13.006-28.903 28.903-28.903 15.897 0 28.903 13.006 28.903 28.903v16.516c0 15.897-13.007 28.903-28.903 28.903z" fill="#4b3f4e"></path><path d="M342.71 252.95c-1.413 0-2.769.221-4.129.419v40.871c0 9.121 7.395 16.516 16.516 16.516 9.122 0 16.516-7.395 16.516-16.516v-12.387c0-15.897-13.007-28.903-28.903-28.903z" fill="#5d5360"></path><circle cx="342.71" cy="273.6" r="12.387" fill="#fff"></circle><path d="M247.742 475.699c.715-.27 1.431-.546 2.149-.832a16.526 16.526 0 0 1 12.219 0c.718.286 1.434.562 2.149.832v-32.814h-16.516l-.001 32.814z" fill="#d26437"></path><path d="M255.523 393.337c18.507 0 33.51 12.262 33.51 27.389 0 14.588-14.083 22.269-24.247 27.949-5.892 3.292-12.633 3.292-18.525 0-10.164-5.68-24.247-13.361-24.247-27.949-.001-15.127 15.002-27.389 33.509-27.389z" fill="#5d5360"></path><path d="M263.731 447.968c-10.164-7.302-24.247-17.178-24.247-35.934 0-6.147 1.632-11.838 4.266-16.868-12.676 3.905-21.737 13.832-21.737 25.559 0 14.588 14.083 22.269 24.247 27.949 5.892 3.292 12.634 3.292 18.525 0l.142-.08c-.394-.241-.809-.347-1.196-.626z" fill="#4b3f4e"></path><path d="M256 96.047l-16.059.803C126.521 107.015 30.854 223.749.372 374.956A558.31 558.31 0 0 0 0 376.82s49.151-50.767 107.036-36.784C114.274 134.366 242.558 96.047 256 96.047z" fill="#d26437"></path></svg><svg viewBox="0 0 512 512" width="512" height="512" id="horse" y="1536"><g fill="#4b3f4e"><path d="M511.472 342.452c-4.454-8.163-9.616-24.3-6.217-52.926 9.911-83.464-14.258-136.846-69.901-124.674l3.652 11.476c49.035-3.652 37.722 75.688 34.429 116.849-2.685 33.569 14.145 51.008 33.537 55.284 3.496.771 6.215-2.866 4.5-6.009zM112.454 31.31c-38.86-9.316-70.41 11.14-81.021 21.606-2.709 2.672-2.025 7.188 1.307 9.025l20.768 11.448 192.314 80.682c-15.91-11.215-57.207-104.504-133.368-122.761z"></path></g><path d="M441.614 249.359c15.302-31.995 13.911-72.335-8.346-91.81-22.647-19.817-58.102-25.256-116.849-9.738-73.726 19.475-71.439 2.653-90.419-16.693-29.263-29.826-73.069-60.223-106.884-71.416-10.288-3.405-21.197-4.344-31.957-3.055l-15.802 1.892a43.37 43.37 0 0 0-17.84 6.289c-5.076 3.173-8.868 8.055-10.834 13.709l-3.895 11.199a25.206 25.206 0 0 1-4.213 7.577L1.864 137.741a8.346 8.346 0 0 0 .581 11.159l7.766 6.04a16.69 16.69 0 0 0 18.583 3.45l60.27-27.316a5.007 5.007 0 0 1 6.56 2.35l61.169 124.281 16.693 196.14-15.738 22.033c-2.147 3.005.002 7.18 3.695 7.18h20.301a4.54 4.54 0 0 0 4.531-4.253l5.589-88.025a961.582 961.582 0 0 1 8.162-78.029l3.663-25.075c68.662 23.95 126.084-14.685 146.481-31.305 11.85 28.533 36.586 77.227 78.923 114.011l13.563 82.16-13.771 23.694c-1.759 3.027.425 6.822 3.926 6.822h20.954a4.54 4.54 0 0 0 4.541-4.54V358.67c0-5.368-2.716-10.24-6.965-13.521-26.064-20.123-23.432-67.135-9.727-95.79z" fill="#af6e5a"></path><path d="M53.919 38.412l9.95 28.437A6.16 6.16 0 0 0 71 70.833l25.86-5.654c3.512-.768 5.038-4.9 2.842-7.746-5.927-7.679-18.549-20.344-40.008-25.388-3.745-.88-7.045 2.736-5.775 6.367z" fill="#965a50"></path><path d="M68.114 104.341c-4.609 0-8.387-3.737-8.387-8.346s3.696-8.346 8.306-8.346h.082a8.346 8.346 0 1 1-.001 16.692z" fill="#4b3f4e"></path><g fill="#965a50"><path d="M95.625 133.424l61.169 124.281c-3.939-45.152-23.986-125.952-29.078-145.991a9.691 9.691 0 0 0-5.516-6.497c-4.824-2.118-10.441-.011-12.659 4.767-4.235 9.121-12.38 16.911-20.476 21.09 2.402-1.239 5.366-.076 6.56 2.35zM206.019 274.033l-2.329 13.642c68.662 23.95 126.084-14.685 146.481-31.305l-.263-.882c-2.136-7.173-10.043-10.837-16.948-7.949-47.679 19.935-86.335 17.162-107.127 12.965-9.27-1.872-18.222 4.205-19.814 13.529z"></path></g><g fill="#4b3f4e"><path d="M161.444 483.057h20.301a4.54 4.54 0 0 0 4.531-4.253l.79-12.44h-22.522l-6.795 9.513c-2.146 3.006.002 7.18 3.695 7.18zM434.623 466.365l-5.737 9.871c-1.76 3.027.424 6.822 3.926 6.822h20.954a4.54 4.54 0 0 0 4.54-4.54v-12.152l-23.683-.001z"></path></g><path d="M22.978 111.646L1.864 137.741a8.346 8.346 0 0 0 .581 11.159l7.766 6.04a16.69 16.69 0 0 0 18.583 3.45l29.861-13.534c-8.687-17.976-23.794-27.929-35.677-33.21z" fill="#be826e"></path><path d="M11.261 143.451c-1.8-2.187-6.145-1.586-9.704 1.342l-.063.052c-.364.3-.602.649-.92.97.404 1.122.977 2.191 1.87 3.085l5.231 4.069c.13-.099.271-.148.399-.253 3.56-2.929 4.987-7.077 3.187-9.265z" fill="#965a50"></path></svg></svg>