<svg xmlns="http://www.w3.org/2000/svg" viewBox="0 0 512.001 512.001" width="60" height="60"><path d="M457.637 134.68c-29.976 0-54.363 24.388-54.363 54.364 0 10.933 3.255 21.114 8.83 29.647l-58.732 58.734c-8.534-5.576-18.715-8.83-29.648-8.83-11.33 0-21.858 3.487-30.576 9.44l-59.338-59.347c5.575-8.533 8.828-18.713 8.828-29.644 0-29.976-24.387-54.363-54.363-54.363s-54.363 24.387-54.363 54.363c0 10.93 3.254 21.108 8.827 29.64L84.003 277.42c-8.532-5.574-18.71-8.827-29.64-8.827C24.386 268.593 0 292.98 0 322.957s24.387 54.363 54.363 54.363 54.363-24.387 54.363-54.363c0-10.933-3.255-21.114-8.83-29.648l58.732-58.734c8.534 5.576 18.715 8.83 29.648 8.83 10.932 0 21.113-3.254 29.646-8.83l59.666 59.674c-5.206 8.338-8.226 18.174-8.226 28.706 0 29.976 24.387 54.363 54.363 54.363s54.363-24.388 54.363-54.364c0-10.93-3.254-21.11-8.827-29.64l58.737-58.737c8.533 5.573 18.712 8.826 29.64 8.826 29.977 0 54.364-24.387 54.364-54.363 0-29.977-24.387-54.362-54.363-54.362zM54.363 354.85c-17.586 0-31.893-14.308-31.893-31.893 0-17.586 14.307-31.893 31.893-31.893 17.585 0 31.893 14.307 31.893 31.893 0 17.585-14.307 31.892-31.893 31.892zm133.913-133.914c-17.585 0-31.893-14.307-31.893-31.893 0-17.585 14.307-31.893 31.893-31.893s31.893 14.307 31.893 31.893-14.308 31.893-31.894 31.893zM323.724 354.85c-17.585 0-31.893-14.308-31.893-31.894s14.308-31.893 31.894-31.893c17.585 0 31.893 14.307 31.893 31.893s-14.308 31.893-31.893 31.893zm133.913-133.914c-17.585 0-31.893-14.307-31.893-31.893 0-17.585 14.307-31.893 31.893-31.893 17.585 0 31.893 14.307 31.893 31.893s-14.308 31.893-31.893 31.893z" fill="#FFF"/><path d="M176.774 272.717c-4.388-4.387-11.5-4.387-15.89 0l-22.853 22.854c-4.386 4.388-4.386 11.502.002 15.89 2.194 2.194 5.07 3.29 7.944 3.29s5.75-1.097 7.944-3.29l22.854-22.854c4.39-4.387 4.39-11.502 0-15.89zM373.962 200.94c-4.388-4.388-11.5-4.388-15.89 0l-22.854 22.854c-4.387 4.387-4.387 11.5 0 15.89 2.195 2.192 5.07 3.29 7.945 3.29 2.876 0 5.75-1.1 7.944-3.292l22.854-22.854c4.39-4.388 4.39-11.502.002-15.89z" fill="#FFF"/></svg>